<mxfile host="65bd71144e">
    <diagram id="Z9H46xJhwJUdKuQkZqPX" name="Page-1">
        <mxGraphModel dx="673" dy="487" grid="1" gridSize="10" guides="1" tooltips="1" connect="1" arrows="1" fold="1" page="1" pageScale="1" pageWidth="827" pageHeight="1169" background="none" math="0" shadow="0">
            <root>
                <mxCell id="0"/>
                <mxCell id="1" parent="0"/>
                <mxCell id="3" value="TurnController" style="ellipse;whiteSpace=wrap;html=1;" parent="1" vertex="1">
                    <mxGeometry x="320" y="90" width="120" height="70" as="geometry"/>
                </mxCell>
                <mxCell id="4" value="Model" style="ellipse;whiteSpace=wrap;html=1;" parent="1" vertex="1">
                    <mxGeometry x="530" y="230" width="120" height="70" as="geometry"/>
                </mxCell>
                <mxCell id="5" value="View" style="ellipse;whiteSpace=wrap;html=1;" parent="1" vertex="1">
                    <mxGeometry x="110" y="230" width="120" height="70" as="geometry"/>
                </mxCell>
            </root>
        </mxGraphModel>
    </diagram>
</mxfile>